<svg width="20" height="20" viewBox="0 0 20 20" fill="none" xmlns="http://www.w3.org/2000/svg">
<path fill-rule="evenodd" clip-rule="evenodd" d="M8.92192 6.76177C9.5787 6.80914 10.2176 6.99885 10.795 7.31646C11.3724 7.63412 11.875 8.07285 12.2686 8.60259C12.5155 8.93496 12.4465 9.40434 12.1143 9.65142C11.7818 9.89829 11.3115 9.82957 11.0645 9.49712C10.7989 9.13967 10.4605 8.84352 10.0723 8.62993C9.68412 8.41643 9.2542 8.28964 8.81353 8.25786C8.37303 8.22621 7.93068 8.29084 7.51665 8.44634C7.10241 8.60199 6.72536 8.84567 6.41216 9.16118L4.10942 11.4795C3.55218 12.0655 3.24307 12.8494 3.25005 13.6631C3.2572 14.4811 3.58352 15.263 4.1563 15.8399C4.72902 16.4166 5.50298 16.7429 6.3106 16.7501C7.11832 16.7571 7.89789 16.4445 8.48052 15.878L9.78325 14.5655C10.075 14.2717 10.5508 14.27 10.8448 14.5616C11.1384 14.8535 11.1395 15.3283 10.8477 15.6221L9.53521 16.9434L9.52642 16.9532C8.66165 17.7941 7.50221 18.2605 6.2979 18.2501C5.09353 18.2394 3.94192 17.7526 3.09185 16.8965C2.24209 16.0407 1.7605 14.8839 1.75005 13.6758C1.73967 12.4677 2.20125 11.3023 3.03618 10.4317L3.04497 10.4229L5.34771 8.10357C5.81239 7.63556 6.37274 7.27369 6.98931 7.04204C7.60594 6.81046 8.26521 6.71446 8.92192 6.76177ZM13.7032 1.75005C14.9074 1.76073 16.0592 2.2477 16.9092 3.10357C17.7588 3.95939 18.2395 5.11638 18.25 6.32427C18.2605 7.53237 17.7998 8.69781 16.9649 9.56841L16.9561 9.5772L14.6534 11.8965C14.1887 12.3646 13.6283 12.7264 13.0118 12.9581C12.3952 13.1896 11.7358 13.2856 11.0792 13.2383C10.4224 13.1909 9.78249 13.0012 9.20513 12.6836C8.628 12.366 8.12492 11.9271 7.73149 11.3975C7.48496 11.0651 7.55462 10.5956 7.88677 10.3487C8.2192 10.102 8.68962 10.1707 8.93657 10.503C9.20209 10.8603 9.54067 11.1566 9.92876 11.3702C10.3168 11.5835 10.7461 11.7104 11.1866 11.7422C11.6272 11.7739 12.0703 11.7093 12.4844 11.5538C12.8985 11.3981 13.2758 11.1543 13.5889 10.8389L15.8809 8.53032C16.4438 7.94331 16.7581 7.15509 16.751 6.33697C16.7438 5.51905 16.4175 4.73709 15.8448 4.16021C15.2721 3.58356 14.4971 3.25725 13.6895 3.25005C12.8856 3.24319 12.109 3.5527 11.5274 4.11431L10.2081 5.43657C9.91556 5.72941 9.44063 5.72961 9.14751 5.43755C8.85462 5.14481 8.85387 4.66903 9.14653 4.37603L10.4668 3.05474L10.4747 3.04693C11.3394 2.20614 12.499 1.73956 13.7032 1.75005Z" fill="#9CA3AF"/>
</svg>
