<svg width="20" height="20" viewBox="0 0 20 20" fill="none" xmlns="http://www.w3.org/2000/svg">
<path d="M3.14282 14.5714V9.99997C3.14282 8.18134 3.86527 6.4372 5.15123 5.15123C6.4372 3.86527 8.18134 3.14282 9.99997 3.14282C11.8186 3.14282 13.5627 3.86527 14.8487 5.15123C16.1347 6.4372 16.8571 8.18134 16.8571 9.99997V14.5714" stroke="#9CA3AF" stroke-width="1.5" stroke-linecap="round" stroke-linejoin="round"/>
<path d="M16.8571 15.3333C16.8571 15.7375 16.6966 16.1251 16.4108 16.4108C16.125 16.6966 15.7374 16.8571 15.3333 16.8571H14.5714C14.1673 16.8571 13.7797 16.6966 13.4939 16.4108C13.2081 16.1251 13.0476 15.7375 13.0476 15.3333V13.0476C13.0476 12.6435 13.2081 12.2559 13.4939 11.9701C13.7797 11.6843 14.1673 11.5238 14.5714 11.5238H16.8571V15.3333ZM3.14282 15.3333C3.14282 15.7375 3.30337 16.1251 3.58914 16.4108C3.87491 16.6966 4.26249 16.8571 4.66663 16.8571H5.42854C5.83268 16.8571 6.22026 16.6966 6.50603 16.4108C6.7918 16.1251 6.95235 15.7375 6.95235 15.3333V13.0476C6.95235 12.6435 6.7918 12.2559 6.50603 11.9701C6.22026 11.6843 5.83268 11.5238 5.42854 11.5238H3.14282V15.3333Z" stroke="#9CA3AF" stroke-width="1.5" stroke-linecap="round" stroke-linejoin="round"/>
</svg>
