<svg width="50" height="50" viewBox="0 0 50 50" fill="none" xmlns="http://www.w3.org/2000/svg">
<path d="M21.4124 37.6344C20.8956 38.1513 20.0576 38.1513 19.5407 37.6344L13.9254 32.0192C12.5471 30.6409 12.5471 28.4062 13.9254 27.0279L17.6081 23.3452L26.6549 32.392L21.4124 37.6344Z" fill="#E1F0FF"/>
<path d="M16.2695 33.73L19.8675 37.3279C20.212 37.6725 20.7707 37.6725 21.1153 37.3279L26.052 32.3912L21.8301 28.1694L16.2695 33.73Z" fill="#C6E3FF" stroke="#C6E3FF" stroke-width="0.9"/>
<path d="M17.6074 23.3452L26.6542 32.392L37.6336 21.4126C38.1505 20.8957 38.1505 20.0577 37.6336 19.5408L30.4586 12.3658C29.9417 11.8489 29.1037 11.8489 28.5868 12.3658L17.6074 23.3452Z" fill="#3398FF"/>
<path d="M22.4492 27.5518L26.6711 31.7736L37.3295 21.1151C37.6741 20.7705 37.6741 20.2119 37.3295 19.8673L33.7316 16.2694L22.4492 27.5518Z" fill="#007EFF" stroke="#007EFF" stroke-width="0.9"/>
</svg>
