<svg width="50" height="50" viewBox="0 0 50 50" fill="none" xmlns="http://www.w3.org/2000/svg">
<path d="M25.2207 32.7163L17.283 24.7786L15.2046 29.3511C15.1285 29.5185 15.1642 29.7156 15.2943 29.8456L20.1537 34.705C20.2837 34.8351 20.4808 34.8708 20.6482 34.7947L25.2207 32.7163Z" fill="#444444"/>
<path d="M19.9277 34.48L15.5179 30.0701L13.1277 32.4603C12.979 32.609 12.956 32.842 13.0726 33.017L16.1014 37.5601C16.2558 37.7917 16.5835 37.8242 16.7804 37.6273L19.9277 34.48Z" fill="#9DCDFF"/>
<path d="M24.4609 32.5679L20.9643 29.0712L18.0515 31.9841L20.4697 34.4023L24.4609 32.5679Z" fill="#353535" stroke="#353535" stroke-width="0.9"/>
<path d="M19.3027 34.4858L16.5603 37.2283C16.5156 37.273 16.4412 37.2655 16.4062 37.2128L14.9784 35.0577L17.4265 32.6096L19.3027 34.4858Z" fill="#007EFF" stroke="#007EFF" stroke-width="0.9"/>
<path d="M25.2209 32.716L27.365 30.5517L19.4477 22.6344L17.2832 24.7783L25.2209 32.716Z" fill="#CCCCCC"/>
<path d="M25.2138 32.0844L26.3523 30.9459L22.7205 27.3141L21.582 28.4526L25.2138 32.0844Z" fill="#B1B1B1" stroke="#B1B1B1" stroke-width="0.9"/>
<path d="M19.0449 23.0137L26.9861 30.9548L37.6723 19.0105C38.4529 18.138 38.416 16.8077 37.5881 15.9799L34.0185 12.4102C33.1906 11.5823 31.8602 11.5455 30.9877 12.3262L19.0449 23.0137Z" fill="#3398FF"/>
<path d="M23.3437 26.6924L26.9659 30.3146L37.3529 18.7275C37.9785 18.0296 37.9494 16.9644 37.2867 16.3017L35.5105 14.5256L23.3437 26.6924Z" fill="#007EFF" stroke="#007EFF" stroke-width="0.9"/>
</svg>
