<svg width="20" height="20" viewBox="0 0 20 20" fill="none" xmlns="http://www.w3.org/2000/svg">
<mask id="mask0_2044_13536" style="mask-type:alpha" maskUnits="userSpaceOnUse" x="2" y="2" width="16" height="16">
<rect x="2" y="2" width="16" height="16" rx="2" fill="#D9D9D9"/>
</mask>
<g mask="url(#mask0_2044_13536)">
<path d="M6.96094 5.50684C7.88084 5.50684 8.62682 6.25201 8.62695 7.17188C8.62695 8.09186 7.88092 8.83789 6.96094 8.83789C6.04107 8.83776 5.2959 8.09177 5.2959 7.17188C5.29603 6.25209 6.04115 5.50697 6.96094 5.50684Z" fill="#9CA3AF"/>
<path fill-rule="evenodd" clip-rule="evenodd" d="M16.332 2C17.2525 2 17.999 2.74652 17.999 3.66699V14.6943L25.2139 21.9863L15.0156 19.4277L17.6436 22.084L0.710938 17.8369L2.00488 16.458C2.00182 16.4167 1.99902 16.3751 1.99902 16.333V3.66699C1.99902 2.80411 2.65478 2.09422 3.49512 2.00879L3.66602 2H16.332ZM3.66602 3.25C3.4359 3.25 3.24902 3.43687 3.24902 3.66699V15.1338L6.19922 11.9922C6.58715 11.5791 7.24109 11.5708 7.63965 11.9736L8.78125 13.1279L11.8057 9.9082C12.1935 9.49537 12.8466 9.48714 13.2451 9.88965L16.749 13.4307V3.66699C16.749 3.43687 16.5622 3.25 16.332 3.25H3.66602Z" fill="#9CA3AF"/>
</g>
</svg>
