<svg width="50" height="50" viewBox="0 0 50 50" fill="none" xmlns="http://www.w3.org/2000/svg">
<path d="M18.1756 34.7484L15.251 31.8238L13.8861 36.1132L18.1756 34.7484Z" fill="#222222"/>
<path d="M30.3613 13.7891L36.2106 19.6383L38.6867 17.1621C39.2036 16.6452 39.2036 15.8072 38.6867 15.2904L34.7093 11.3129C34.1924 10.796 33.3544 10.796 32.8375 11.3129L30.3613 13.7891Z" fill="#FF717F"/>
<path d="M19.6387 24.5127L25.4879 30.3619L36.2115 19.6383L30.3623 13.7891L19.6387 24.5127Z" fill="#3398FF"/>
<path d="M27.9258 16.2256L33.775 22.0748L36.2122 19.6376L30.363 13.7884L27.9258 16.2256Z" fill="#CBD5D8"/>
<path d="M15.2514 31.8236L18.176 34.7482L22.8822 32.8658C22.9931 32.8214 23.0939 32.7549 23.1784 32.6704L25.4875 30.3613L19.6383 24.5121L17.3292 26.8212C17.2447 26.9057 17.1782 27.0065 17.1338 27.1174L15.2514 31.8236Z" fill="#FFEDCD"/>
<path d="M18.2823 34.232L17.0522 33.0002L22.2701 27.7694L24.8654 30.3597L22.8975 32.3342C22.8338 32.3981 22.7576 32.4484 22.6738 32.4818L18.2823 34.232Z" fill="#FADFAF" stroke="#FADFAF" stroke-width="0.9"/>
<path d="M22.8809 27.1191L25.4888 29.7271L33.1455 22.0704L30.5376 19.4624L22.8809 27.1191Z" fill="#007EFF" stroke="#007EFF" stroke-width="0.9"/>
<path d="M31.1621 18.8384L33.7701 21.4464L35.5783 19.6382L32.9703 17.0302L31.1621 18.8384Z" fill="#A1C1CB" stroke="#A1C1CB" stroke-width="0.9"/>
<path d="M33.6016 16.3989L36.2161 19.0134L38.3734 16.8561C38.718 16.5115 38.718 15.9528 38.3734 15.6083L36.3828 13.6177L33.6016 16.3989Z" fill="#FF5668" stroke="#FF5668" stroke-width="0.9"/>
</svg>
