<svg width="20" height="20" viewBox="0 0 20 20" fill="none" xmlns="http://www.w3.org/2000/svg">
<path d="M9.29199 10.4824V19C9.221 18.9716 9.15092 18.9398 9.08301 18.9025L2.47168 15.2712C1.87202 14.9419 1.5 14.3168 1.5 13.6386V6.49871C1.50001 6.41634 1.50588 6.3348 1.5166 6.25444L9.29199 10.4824Z" fill="white"/>
<path d="M18.4902 6.31816C18.4961 6.37783 18.5 6.43801 18.5 6.49871V13.6386C18.5 14.3168 18.128 14.9419 17.5283 15.2712L10.917 18.9025C10.8491 18.9398 10.779 18.9716 10.708 19V10.4862L18.4902 6.31816Z" fill="white"/>
<path d="M9.08301 1.2348C9.6533 0.921733 10.3467 0.921733 10.917 1.2348L17.5283 4.86605C17.6381 4.92635 17.7403 4.99693 17.834 5.07556L10.002 9.26969L2.21484 5.03597C2.29486 4.97322 2.38067 4.91603 2.47168 4.86605L9.08301 1.2348Z" fill="white"/>
</svg>
