<svg width="20" height="20" viewBox="0 0 20 20" fill="none" xmlns="http://www.w3.org/2000/svg">
<path d="M5.97222 17.5142C5.74355 17.5142 5.14064 17.5142 4.50012 17.5142C3.39555 17.5142 2.5 16.6187 2.5 15.5142V7.37529H5.97222V17.5142Z" fill="#9CA3AF"/>
<path d="M17.5 15.5142C17.5 16.6187 16.6072 17.5142 15.5026 17.5142C12.7827 17.5142 8.15917 17.5142 7.36111 17.5142V7.37529H17.5V15.5142Z" fill="#9CA3AF"/>
<path d="M15.4985 2.24111C16.6051 2.23867 17.5 3.13503 17.5 4.24169C17.5 5.16554 17.5 5.9864 17.5 5.9864H2.5V4.27951C2.5 3.15825 3.42039 2.24703 4.54165 2.2497C7.48935 2.25673 12.6616 2.24736 15.4985 2.24111Z" fill="#9CA3AF"/>
</svg>
