<svg width="20" height="20" viewBox="0 0 20 20" fill="none" xmlns="http://www.w3.org/2000/svg">
<path d="M16.6176 2.5C17.105 2.5 17.5 2.89504 17.5 3.38235V5.58824C17.5 6.07555 17.105 6.47059 16.6176 6.47059C16.1303 6.47059 15.7353 6.07555 15.7353 5.58824V4.26471H10.8824V15.7353H12.2059C12.6932 15.7353 13.0882 16.1303 13.0882 16.6176C13.0882 17.105 12.6932 17.5 12.2059 17.5H7.79412C7.30681 17.5 6.91176 17.105 6.91176 16.6176C6.91176 16.1303 7.30681 15.7353 7.79412 15.7353H9.11765V4.26471H4.26471V5.58824C4.26471 6.07555 3.86966 6.47059 3.38235 6.47059C2.89504 6.47059 2.5 6.07555 2.5 5.58824V3.38235C2.5 2.89504 2.89504 2.5 3.38235 2.5H16.6176Z" fill="#9CA3AF"/>
</svg>
