<svg width="20" height="20" viewBox="0 0 20 20" fill="none" xmlns="http://www.w3.org/2000/svg">
<path d="M18.1441 5.8784C18.0523 5.51002 17.8654 5.1725 17.6022 4.89993C17.339 4.62735 17.0089 4.42938 16.6451 4.326C15.3161 4 10 4 10 4C10 4 4.68391 4 3.35489 4.35705C2.99115 4.46043 2.661 4.6584 2.3978 4.93098C2.1346 5.20355 1.94766 5.54107 1.85588 5.90944C1.61265 7.26434 1.49367 8.63879 1.50044 10.0155C1.49177 11.4026 1.61076 12.7876 1.85588 14.1527C1.95707 14.5096 2.14819 14.8343 2.41078 15.0953C2.67337 15.3564 2.99854 15.545 3.35489 15.643C4.68391 16 10 16 10 16C10 16 15.3161 16 16.6451 15.643C17.0089 15.5396 17.339 15.3416 17.6022 15.069C17.8654 14.7965 18.0523 14.4589 18.1441 14.0906C18.3855 12.7459 18.5044 11.3819 18.4996 10.0155C18.5082 8.62843 18.3892 7.24349 18.1441 5.8784Z" stroke="#9CA3AF" stroke-width="1.5" stroke-linecap="round" stroke-linejoin="round"/>
<path d="M8.5 12.5L12.5 10L8.5 7.5V12.5Z" fill="#9CA3AF" stroke="#9CA3AF" stroke-width="1.35" stroke-linecap="round" stroke-linejoin="round"/>
</svg>
