<svg width="60" height="60" viewBox="0 0 60 60" fill="none" xmlns="http://www.w3.org/2000/svg">
<g id="Group 388">

<path id="Vector" d="M29.3245 12.0612C28.7242 12.4888 28.6143 13.3368 29.0859 13.9032L31.3266 16.5947C25.2466 15.7675 19.0926 19.001 16.5114 24.8981C13.403 32.0147 16.6694 40.328 23.7786 43.4389C30.8953 46.5473 39.211 43.2883 42.3193 36.1716C43.7548 32.8784 43.8896 29.277 42.7166 25.9166C42.5506 25.4411 42.0152 25.2272 41.551 25.4226L40.9567 25.6727C40.1553 26.0101 39.7912 26.9318 40.0127 27.7727C40.6363 30.1396 40.451 32.6295 39.4468 34.9207C37.0287 40.4542 30.5656 42.992 25.0321 40.5738C19.4986 38.1556 16.9583 31.6851 19.3765 26.1515C21.2986 21.7605 26.6517 19.727 31.1791 20.0937L27.6849 22.0984C27.1275 22.4182 26.8953 23.1029 27.1431 23.6958C27.4449 24.4179 28.32 24.7 28.9867 24.2903L35.2671 20.4306C35.9397 20.055 36.2228 19.2519 35.9779 18.5503C35.9469 18.4617 35.9186 18.3804 35.8655 18.2995L31.0468 12.2998C30.6265 11.7765 29.8711 11.6719 29.3245 12.0612Z" fill="#286DEA"    />
</g>
</svg>
