<svg width="14" height="14" viewBox="0 0 14 14" fill="none" xmlns="http://www.w3.org/2000/svg">
<path d="M6.19033 0.40977C6.58981 -0.136587 7.40531 -0.136586 7.80479 0.40977L9.72317 3.03345C9.84659 3.20225 10.0198 3.32811 10.2185 3.39333L13.3066 4.40705C13.9496 4.61815 14.2016 5.39374 13.8055 5.9425L11.903 8.57775C11.7806 8.74729 11.7145 8.95094 11.7138 9.16005L11.704 12.4102C11.7019 13.0871 11.0422 13.5664 10.3979 13.3592L7.30369 12.3642C7.10462 12.3002 6.89049 12.3002 6.69142 12.3642L3.59726 13.3592C2.95293 13.5664 2.29318 13.0871 2.29113 12.4102L2.28129 9.16005C2.28066 8.95094 2.21449 8.74729 2.09209 8.57775L0.189638 5.9425C-0.206531 5.39374 0.0454721 4.61815 0.688536 4.40705L3.77661 3.39333C3.97529 3.32811 4.14852 3.20225 4.27195 3.03345L6.19033 0.40977Z" fill="#CDE6FF"/>
</svg>
