<svg width="24" height="24" viewBox="0 0 24 24" fill="none" xmlns="http://www.w3.org/2000/svg">
<path d="M2.14652 19.8535L9.64673 12.3563C9.84189 12.1612 10.1582 12.1611 10.3535 12.3561L11.646 13.6465C11.8415 13.8417 11.8416 14.1585 11.6463 14.3538L4.14646 21.8567C4.05268 21.9505 3.92548 22.0032 3.79284 22.0032H2.5C2.22386 22.0032 2 21.7793 2 21.5032V20.2072C2 20.0745 2.05271 19.9473 2.14652 19.8535Z" fill="#999999"/>
<path d="M14 5L9 10L14 15L19 10L14 5Z" fill="#007EFF"/>
<path d="M11.2929 21.2929L2.70711 12.7071C2.31658 12.3166 2.31658 11.6834 2.70711 11.2929L4 10C5.65685 8.34315 8.34315 8.34315 10 10L14 14C15.6569 15.6569 15.6569 18.3431 14 20L12.7071 21.2929C12.3166 21.6834 11.6834 21.6834 11.2929 21.2929Z" fill="#007EFF"/>
<path d="M16.5 2.5L21.5 7.5C22.3284 8.32843 22.3284 9.67157 21.5 10.5C20.6716 11.3284 19.3284 11.3284 18.5 10.5L13.5 5.5C12.6716 4.67157 12.6716 3.32843 13.5 2.5C14.3284 1.67157 15.6716 1.67157 16.5 2.5Z" fill="#007EFF"/>
</svg>
