<svg width="30" height="30" viewBox="0 0 30 30" fill="none" xmlns="http://www.w3.org/2000/svg">
<path d="M27.2162 8.81759C27.0785 8.26503 26.7981 7.75875 26.4033 7.34989C26.0085 6.94103 25.5133 6.64407 24.9677 6.489C22.9741 6 15 6 15 6C15 6 7.02587 6 5.03234 6.53558C4.48672 6.69064 3.9915 6.9876 3.5967 7.39646C3.2019 7.80532 2.9215 8.3116 2.78382 8.86417C2.41897 10.8965 2.2405 12.9582 2.25066 15.0233C2.23766 17.1039 2.41613 19.1813 2.78382 21.229C2.9356 21.7644 3.22229 22.2514 3.61617 22.643C4.01005 23.0346 4.49781 23.3175 5.03234 23.4644C7.02587 24 15 24 15 24C15 24 22.9741 24 24.9677 23.4644C25.5133 23.3094 26.0085 23.0124 26.4033 22.6035C26.7981 22.1947 27.0785 21.6884 27.2162 21.1358C27.5782 19.1188 27.7567 17.0728 27.7493 15.0233C27.7623 12.9426 27.5839 10.8652 27.2162 8.81759Z" stroke="#9CA3AF" stroke-width="2.25" stroke-linecap="round" stroke-linejoin="round"/>
<path d="M12.75 18.75L18.75 15L12.75 11.25V18.75Z" fill="#9CA3AF" stroke="#9CA3AF" stroke-width="2.025" stroke-linecap="round" stroke-linejoin="round"/>
</svg>
