<svg width="90" height="90" viewBox="0 0 90 90" fill="none" xmlns="http://www.w3.org/2000/svg">
<path d="M80.7839 83.6706C78.2211 83.719 75.7466 82.8847 73.4316 81.6488C70.268 79.9602 67.2952 77.967 64.4733 75.726C56.1756 69.1368 48.9457 61.5425 42.6129 53.0625C41.3799 51.411 39.9419 49.916 38.6064 48.3413C37.9059 47.5127 37.1171 47.507 36.317 48.1249C35.8044 48.5207 35.3289 48.9792 34.9018 49.4661C31.1174 53.8057 27.3217 58.1368 23.5857 62.5192C20.6955 65.9077 17.5888 69.1026 14.9264 72.6934C12.9787 75.3188 10.7434 77.7392 11.1363 81.3783C11.2474 82.4063 10.4985 82.9217 9.61291 83.2321C8.69886 83.551 7.91009 83.3346 7.2096 82.691C4.9202 80.5952 4.41903 77.9983 5.6634 74.9771C7.77341 69.8458 11.3527 65.7568 14.9862 61.6962C20.5673 55.463 26.12 49.1984 31.741 42.9994C32.9313 41.6838 32.7804 40.8267 31.741 39.3916C27.7232 33.8531 23.2525 28.6707 19.1834 23.1806C18.2466 21.9163 16.9965 21.0905 15.8319 20.1252C14.9776 19.4162 14.1547 18.5591 14.9292 17.3432C15.6497 16.2099 16.7801 16.3181 17.8451 16.7281C19.1664 17.235 20.4335 17.8444 21.3646 19.0005C26.0631 24.8293 31.5844 29.9577 35.8984 36.1169C36.858 37.4894 37.1428 37.4923 38.6576 36.003C42.069 32.6515 45.412 29.2345 48.8432 25.9029C53.9916 20.9026 59.1684 15.9365 64.3736 10.9989C65.7889 9.6549 67.3521 8.46463 68.8329 7.18609C69.7156 6.42296 70.5641 5.87338 71.6889 6.83015C72.9447 7.89797 73.3519 9.23631 72.4236 10.569C71.3728 12.0781 70.1797 13.5133 68.9012 14.8374C60.37 23.6704 51.8303 32.4977 43.1994 41.2339C42.0035 42.4441 42.0775 43.3155 42.7524 44.631C44.1676 47.3874 46.3972 49.5117 48.3506 51.8125C52.0011 56.1122 55.8624 60.2497 59.8432 64.2476C65.954 70.3812 73.1155 75.0397 81.0316 78.5422C82.2191 79.069 83.4406 79.536 84.2693 80.6522C85.5023 82.3152 85.1947 83.2235 83.1958 83.5282C82.4469 83.6421 81.678 83.6279 80.7896 83.6791L80.7839 83.6706Z" fill="#FF0000"/>
</svg>
