<svg width="24" height="24" viewBox="0 0 24 24" fill="none" xmlns="http://www.w3.org/2000/svg">
    <path d="M12 5C13.9724 5 15.7143 5.96825 16.7695 7.44922L15.7139 8.56934C14.9588 7.33374 13.5835 6.5 12 6.5C9.80057 6.5 8.00255 8.10822 7.70996 10.167L7.54004 11.3594L6.33887 11.4521C4.73563 11.575 3.5 12.894 3.5 14.4707C3.50001 16.0251 4.70089 17.3292 6.27148 17.4834L6.69922 17.5254H17.0254L17.5928 17.4941C19.2288 17.4043 20.5 16.0699 20.5 14.4707C20.5 13.1336 19.6103 11.9848 18.3623 11.5908L19.4658 10.4199C20.9682 11.1631 22 12.6972 22 14.4707C22 16.8866 20.086 18.8599 17.6748 18.9922V19.0254H6.125V18.9766C3.80895 18.7493 2.00001 16.8193 2 14.4707C2 12.0885 3.86101 10.1369 6.22461 9.95605C6.62258 7.15527 9.05614 5 12 5Z" fill="#999999"/>
    <path d="M10 12.4545L12.4 15L19 8" stroke="#999999" stroke-width="1.5" stroke-linecap="round" stroke-linejoin="round"/>
</svg>
