<svg width="30" height="30" viewBox="0 0 30 30" fill="none" xmlns="http://www.w3.org/2000/svg">
<path d="M4.71436 21.8571V14.9999C4.71436 12.272 5.79803 9.65579 7.72697 7.72685C9.65592 5.7979 12.2721 4.71423 15.0001 4.71423C17.728 4.71423 20.3442 5.7979 22.2732 7.72685C24.2021 9.65579 25.2858 12.272 25.2858 14.9999V21.8571" stroke="#9CA3AF" stroke-width="2.25" stroke-linecap="round" stroke-linejoin="round"/>
<path d="M25.2858 23.0001C25.2858 23.6063 25.045 24.1876 24.6163 24.6163C24.1877 25.045 23.6063 25.2858 23.0001 25.2858H21.8572C21.251 25.2858 20.6696 25.045 20.241 24.6163C19.8123 24.1876 19.5715 23.6063 19.5715 23.0001V19.5715C19.5715 18.9653 19.8123 18.3839 20.241 17.9552C20.6696 17.5266 21.251 17.2858 21.8572 17.2858H25.2858V23.0001ZM4.71436 23.0001C4.71436 23.6063 4.95517 24.1876 5.38383 24.6163C5.81248 25.045 6.39386 25.2858 7.00007 25.2858H8.14293C8.74914 25.2858 9.33052 25.045 9.75917 24.6163C10.1878 24.1876 10.4286 23.6063 10.4286 23.0001V19.5715C10.4286 18.9653 10.1878 18.3839 9.75917 17.9552C9.33052 17.5266 8.74914 17.2858 8.14293 17.2858H4.71436V23.0001Z" stroke="#9CA3AF" stroke-width="2.25" stroke-linecap="round" stroke-linejoin="round"/>
</svg>
