<svg width="24" height="24" viewBox="0 0 24 24" fill="none" xmlns="http://www.w3.org/2000/svg">
<path d="M15.5 8L19.5 8L19.5 4" stroke="#999999" stroke-width="1.5" stroke-linecap="round" stroke-linejoin="round"/>
<path d="M8.5 16L4.5 16L4.5 20" stroke="#999999" stroke-width="1.5" stroke-linecap="round" stroke-linejoin="round"/>
<path d="M18.9282 8C18.0477 6.47486 16.6885 5.2829 15.0615 4.60896C13.4344 3.93503 11.6305 3.81679 9.92945 4.27259C8.22838 4.72839 6.72525 5.73276 5.65317 7.12991C4.5811 8.52706 4 10.2389 4 12" stroke="#999999" stroke-width="1.5" stroke-linecap="round"/>
<path d="M5.0718 16C5.95233 17.5251 7.31151 18.7171 8.93853 19.391C10.5656 20.065 12.3695 20.1832 14.0706 19.7274C15.7716 19.2716 17.2748 18.2672 18.3468 16.8701C19.4189 15.4729 20 13.7611 20 12" stroke="#999999" stroke-width="1.5" stroke-linecap="round"/>
</svg>
