<svg width="24" height="24" viewBox="0 0 24 24" fill="none" xmlns="http://www.w3.org/2000/svg">
<path d="M12 6C13.7041 6 15.2404 6.7116 16.332 7.85254L15.3018 8.94531C14.48 8.05673 13.3049 7.5 12 7.5C9.76722 7.5 7.91257 9.1281 7.56152 11.2627L7.39648 12.2598C7.35941 12.3094 7.32583 12.3609 7.29395 12.4131L6.21875 12.5127C4.69439 12.6535 3.5 13.9384 3.5 15.5C3.5 17.1569 4.84315 18.5 6.5 18.5H17.5C19.1569 18.5 20.5 17.1569 20.5 15.5C20.5 13.9381 19.3051 12.6541 17.7803 12.5137L17.4629 12.4844L18.707 11.165C20.606 11.6926 22 13.4329 22 15.5C22 17.9853 19.9853 20 17.5 20H6.5C4.01472 20 2 17.9853 2 15.5C2 13.156 3.79221 11.2309 6.08105 11.0195C6.54915 8.17232 9.02026 6 12 6Z" fill="#008857"/>
<path d="M9 13.4545L11.4 16L18 9" stroke="#008857" stroke-width="1.5" stroke-linecap="round" stroke-linejoin="round"/>
</svg>
