<svg width="30" height="30" viewBox="0 0 30 30" fill="none" xmlns="http://www.w3.org/2000/svg">
<circle cx="15" cy="15" r="14.25" fill="white" stroke="#007EFF" stroke-width="1.5"/>
<path d="M20.25 8.25H9.75C8.92157 8.25 8.25 8.92157 8.25 9.75V20.25C8.25 21.0784 8.92157 21.75 9.75 21.75H20.25C21.0784 21.75 21.75 21.0784 21.75 20.25V9.75C21.75 8.92157 21.0784 8.25 20.25 8.25Z" fill="#007EFF" stroke="#007EFF" stroke-width="1.5" stroke-linecap="round" stroke-linejoin="round"/>
<path d="M12 13.5C12.8284 13.5 13.5 12.8284 13.5 12C13.5 11.1716 12.8284 10.5 12 10.5C11.1716 10.5 10.5 11.1716 10.5 12C10.5 12.8284 11.1716 13.5 12 13.5Z" stroke="white" stroke-width="1.5" stroke-linecap="round" stroke-linejoin="round"/>
<path d="M23.25 18.75L18 13.5L9 22.5" stroke="white" stroke-width="1.5" stroke-linecap="round" stroke-linejoin="round"/>
</svg>
