<svg width="30" height="30" viewBox="0 0 30 30" fill="none" xmlns="http://www.w3.org/2000/svg">
<circle cx="15" cy="15" r="14.25" fill="white" stroke="#007EFF" stroke-width="1.5"/>
<path d="M16.1152 7.57038C15.8433 7.44954 15.5236 7.49989 15.3021 7.69878L10.4834 12.0366H8.25528C7.83736 12.0366 7.5 12.374 7.5 12.7919V17.3236C7.5 17.7415 7.83736 18.0789 8.25528 18.0789H10.4834L15.3021 22.4167C15.443 22.5451 15.6243 22.6106 15.8081 22.6106C15.9113 22.6106 16.0171 22.5904 16.1152 22.5451C16.3871 22.4243 16.5634 22.1524 16.5634 21.8553V8.2602C16.5634 7.96313 16.3871 7.69123 16.1152 7.57038Z" fill="#007EFF"/>
<path d="M19.3187 10.102C19.0366 9.99181 18.7256 10.1519 18.6256 10.4588C18.5243 10.7658 18.6714 11.1042 18.9535 11.2131C20.4254 11.7877 21.4139 13.3015 21.4139 14.9806C21.4139 16.6597 20.4145 18.1919 18.9282 18.7586C18.6449 18.8662 18.4966 19.2033 18.5954 19.5103C18.6738 19.753 18.8835 19.9051 19.1078 19.9051C19.1668 19.9051 19.2283 19.8946 19.2874 19.8723C21.2089 19.1404 22.5 17.174 22.5 14.9806C22.5 12.7873 21.2198 10.8445 19.3187 10.102Z" fill="#007EFF"/>
<path d="M18.1603 16.8356C17.9435 17.0202 17.8849 17.3933 18.0294 17.6701C18.1205 17.8439 18.2692 17.9375 18.4221 17.9375C18.5121 17.9375 18.6032 17.9054 18.6828 17.8359C19.4305 17.1994 19.8765 16.1402 19.8765 15.0036C19.8765 13.8669 19.4116 12.7609 18.6325 12.1284C18.4127 11.9506 18.1215 12.0335 17.9823 12.3143C17.843 12.5951 17.9079 12.9669 18.1278 13.1447C18.6336 13.5539 18.9352 14.2493 18.9352 15.0036C18.9352 15.7578 18.6462 16.4224 18.1613 16.8356H18.1603Z" fill="#007EFF"/>
</svg>
