<svg width="30" height="30" viewBox="0 0 30 30" fill="none" xmlns="http://www.w3.org/2000/svg">
<mask id="mask0_664_3614" style="mask-type:alpha" maskUnits="userSpaceOnUse" x="3" y="3" width="24" height="24">
<rect x="3" y="3" width="24" height="24" rx="3" fill="#D9D9D9"/>
</mask>
<g mask="url(#mask0_664_3614)">
<path d="M10.4429 8.2605C11.8227 8.2605 12.9417 9.37825 12.9419 10.7581C12.9419 12.138 11.8228 13.2571 10.4429 13.2571C9.06307 13.2569 7.94531 12.1379 7.94531 10.7581C7.94551 9.37838 9.06319 8.2607 10.4429 8.2605Z" fill="#9CA3AF"/>
<path fill-rule="evenodd" clip-rule="evenodd" d="M24.4995 3.00024C25.8802 3.00024 27 4.12002 27 5.50073V22.0417L37.8223 32.9797L22.5249 29.1418L26.4668 33.1262L1.06787 26.7556L3.00879 24.6873C3.00419 24.6253 3 24.5629 3 24.4998V5.50073C3 4.20641 3.98363 3.14158 5.24414 3.01343L5.50049 3.00024H24.4995ZM5.50049 4.87524C5.15531 4.87524 4.875 5.15555 4.875 5.50073V22.7009L9.30029 17.9885C9.88219 17.3689 10.8631 17.3565 11.4609 17.9607L13.1733 19.6921L17.71 14.8625C18.2918 14.2433 19.2713 14.231 19.8691 14.8347L25.125 20.1462V5.50073C25.125 5.15556 24.8447 4.87524 24.4995 4.87524H5.50049Z" fill="#9CA3AF"/>
</g>
</svg>
