<svg width="24" height="24" viewBox="0 0 24 24" fill="none" xmlns="http://www.w3.org/2000/svg">
<mask id="path-1-inside-1_1985_1147" fill="white">
<path d="M12 5C14.9797 5 17.4498 7.1724 17.918 10.0195C20.2073 10.2304 22 12.1557 22 14.5C22 16.9853 19.9853 19 17.5 19H6.5C4.01472 19 2 16.9853 2 14.5C2 12.156 3.79221 10.2309 6.08105 10.0195C6.54915 7.17232 9.02026 5 12 5Z"/>
</mask>
<path d="M17.918 10.0195L16.4378 10.2629L16.6259 11.4069L17.7804 11.5132L17.918 10.0195ZM6.08105 10.0195L6.21896 11.5132L7.37315 11.4066L7.56118 10.2629L6.08105 10.0195ZM12 5V6.5C14.2325 6.5 16.0868 8.12791 16.4378 10.2629L17.918 10.0195L19.3981 9.77615C18.8128 6.21688 15.7269 3.5 12 3.5V5ZM17.918 10.0195L17.7804 11.5132C19.3052 11.6537 20.5 12.9381 20.5 14.5H22H23.5C23.5 11.3732 21.1094 8.80714 18.0556 8.52585L17.918 10.0195ZM22 14.5H20.5C20.5 16.1569 19.1569 17.5 17.5 17.5V19V20.5C20.8137 20.5 23.5 17.8137 23.5 14.5H22ZM17.5 19V17.5H6.5V19V20.5H17.5V19ZM6.5 19V17.5C4.84315 17.5 3.5 16.1569 3.5 14.5H2H0.5C0.5 17.8137 3.18629 20.5 6.5 20.5V19ZM2 14.5H3.5C3.5 12.9383 4.69452 11.6539 6.21896 11.5132L6.08105 10.0195L5.94315 8.52588C2.88989 8.80778 0.5 11.3737 0.5 14.5H2ZM6.08105 10.0195L7.56118 10.2629C7.91214 8.12817 9.76714 6.5 12 6.5V5V3.5C8.27339 3.5 5.18616 6.21647 4.60092 9.77619L6.08105 10.0195Z" fill="#EC0043" mask="url(#path-1-inside-1_1985_1147)"/>
<path d="M12 9V13.5" stroke="#EC0043" stroke-width="1.5" stroke-linecap="round"/>
<circle cx="12" cy="15.75" r="0.75" fill="#EC0043"/>
</svg>
